<mxfile host="app.diagrams.net" modified="2021-03-14T04:40:39.385Z" agent="5.0 (Windows NT 10.0; Win64; x64) AppleWebKit/537.36 (KHTML, like Gecko) Chrome/89.0.4389.82 Safari/537.36" etag="gFczAZ53qpyScogQk_e3" version="14.4.4" type="github">
  <diagram id="kxvTnTLBmqgp823A-_hp" name="Page-1">
    <mxGraphModel dx="2083" dy="2513" grid="1" gridSize="10" guides="1" tooltips="1" connect="1" arrows="1" fold="1" page="1" pageScale="1" pageWidth="1200" pageHeight="1600" math="0" shadow="0">
      <root>
        <mxCell id="0" />
        <mxCell id="1" parent="0" />
        <mxCell id="2_-vHu_s7roZ5x0PE6qe-15" value="" style="rounded=0;whiteSpace=wrap;html=1;" vertex="1" parent="1">
          <mxGeometry x="1150" y="-80" width="1420" height="460" as="geometry" />
        </mxCell>
        <mxCell id="2_-vHu_s7roZ5x0PE6qe-29" style="edgeStyle=orthogonalEdgeStyle;rounded=0;orthogonalLoop=1;jettySize=auto;html=1;exitX=1;exitY=0.5;exitDx=0;exitDy=0;entryX=0;entryY=0.5;entryDx=0;entryDy=0;" edge="1" parent="1" source="2_-vHu_s7roZ5x0PE6qe-1" target="2_-vHu_s7roZ5x0PE6qe-22">
          <mxGeometry relative="1" as="geometry" />
        </mxCell>
        <mxCell id="2_-vHu_s7roZ5x0PE6qe-35" style="edgeStyle=orthogonalEdgeStyle;rounded=0;orthogonalLoop=1;jettySize=auto;html=1;exitX=1;exitY=0.75;exitDx=0;exitDy=0;entryX=-0.017;entryY=0.382;entryDx=0;entryDy=0;entryPerimeter=0;" edge="1" parent="1" source="2_-vHu_s7roZ5x0PE6qe-1" target="2_-vHu_s7roZ5x0PE6qe-32">
          <mxGeometry relative="1" as="geometry">
            <Array as="points">
              <mxPoint x="1970" y="120" />
              <mxPoint x="2065" y="120" />
              <mxPoint x="2065" y="130" />
            </Array>
          </mxGeometry>
        </mxCell>
        <mxCell id="2_-vHu_s7roZ5x0PE6qe-1" value="" style="rounded=0;whiteSpace=wrap;html=1;" vertex="1" parent="1">
          <mxGeometry x="1390" width="580" height="130" as="geometry" />
        </mxCell>
        <mxCell id="2_-vHu_s7roZ5x0PE6qe-2" value="&lt;font style=&quot;font-size: 18px&quot;&gt;AUTH SERVICES&lt;/font&gt;" style="rounded=0;whiteSpace=wrap;html=1;" vertex="1" parent="1">
          <mxGeometry x="1390" width="580" height="40" as="geometry" />
        </mxCell>
        <mxCell id="2_-vHu_s7roZ5x0PE6qe-3" value="MiddleWare" style="rounded=0;whiteSpace=wrap;html=1;" vertex="1" parent="1">
          <mxGeometry x="1420" y="50" width="130" height="60" as="geometry" />
        </mxCell>
        <mxCell id="2_-vHu_s7roZ5x0PE6qe-5" value="Route Handlers" style="rounded=0;whiteSpace=wrap;html=1;" vertex="1" parent="1">
          <mxGeometry x="1615" y="50" width="130" height="60" as="geometry" />
        </mxCell>
        <mxCell id="2_-vHu_s7roZ5x0PE6qe-6" value="DB Models" style="rounded=0;whiteSpace=wrap;html=1;" vertex="1" parent="1">
          <mxGeometry x="1810" y="50" width="130" height="60" as="geometry" />
        </mxCell>
        <mxCell id="2_-vHu_s7roZ5x0PE6qe-30" style="edgeStyle=orthogonalEdgeStyle;rounded=0;orthogonalLoop=1;jettySize=auto;html=1;exitX=1;exitY=0.5;exitDx=0;exitDy=0;entryX=0;entryY=0.5;entryDx=0;entryDy=0;" edge="1" parent="1" source="2_-vHu_s7roZ5x0PE6qe-7" target="2_-vHu_s7roZ5x0PE6qe-23">
          <mxGeometry relative="1" as="geometry" />
        </mxCell>
        <mxCell id="2_-vHu_s7roZ5x0PE6qe-36" style="edgeStyle=orthogonalEdgeStyle;rounded=0;orthogonalLoop=1;jettySize=auto;html=1;exitX=1;exitY=0.75;exitDx=0;exitDy=0;entryX=0.003;entryY=0.702;entryDx=0;entryDy=0;entryPerimeter=0;" edge="1" parent="1" source="2_-vHu_s7roZ5x0PE6qe-7" target="2_-vHu_s7roZ5x0PE6qe-32">
          <mxGeometry relative="1" as="geometry">
            <Array as="points">
              <mxPoint x="1970" y="220" />
              <mxPoint x="2065" y="220" />
              <mxPoint x="2065" y="239" />
            </Array>
          </mxGeometry>
        </mxCell>
        <mxCell id="2_-vHu_s7roZ5x0PE6qe-7" value="" style="rounded=0;whiteSpace=wrap;html=1;" vertex="1" parent="1">
          <mxGeometry x="1390" y="140" width="580" height="90" as="geometry" />
        </mxCell>
        <mxCell id="2_-vHu_s7roZ5x0PE6qe-8" value="&lt;font style=&quot;font-size: 18px&quot;&gt;List services&lt;/font&gt;" style="rounded=0;whiteSpace=wrap;html=1;" vertex="1" parent="1">
          <mxGeometry x="1390" y="140" width="580" height="40" as="geometry" />
        </mxCell>
        <mxCell id="2_-vHu_s7roZ5x0PE6qe-31" style="edgeStyle=orthogonalEdgeStyle;rounded=0;orthogonalLoop=1;jettySize=auto;html=1;exitX=1;exitY=0.5;exitDx=0;exitDy=0;" edge="1" parent="1" source="2_-vHu_s7roZ5x0PE6qe-12" target="2_-vHu_s7roZ5x0PE6qe-24">
          <mxGeometry relative="1" as="geometry" />
        </mxCell>
        <mxCell id="2_-vHu_s7roZ5x0PE6qe-37" style="edgeStyle=orthogonalEdgeStyle;rounded=0;orthogonalLoop=1;jettySize=auto;html=1;exitX=1;exitY=0.75;exitDx=0;exitDy=0;entryX=0.01;entryY=0.97;entryDx=0;entryDy=0;entryPerimeter=0;" edge="1" parent="1" source="2_-vHu_s7roZ5x0PE6qe-12" target="2_-vHu_s7roZ5x0PE6qe-32">
          <mxGeometry relative="1" as="geometry">
            <Array as="points">
              <mxPoint x="1970" y="330" />
            </Array>
          </mxGeometry>
        </mxCell>
        <mxCell id="2_-vHu_s7roZ5x0PE6qe-12" value="" style="rounded=0;whiteSpace=wrap;html=1;" vertex="1" parent="1">
          <mxGeometry x="1390" y="250" width="580" height="90" as="geometry" />
        </mxCell>
        <mxCell id="2_-vHu_s7roZ5x0PE6qe-13" value="&lt;font style=&quot;font-size: 18px&quot;&gt;Other services...&lt;/font&gt;" style="rounded=0;whiteSpace=wrap;html=1;" vertex="1" parent="1">
          <mxGeometry x="1390" y="250" width="580" height="40" as="geometry" />
        </mxCell>
        <mxCell id="2_-vHu_s7roZ5x0PE6qe-19" style="edgeStyle=orthogonalEdgeStyle;rounded=0;orthogonalLoop=1;jettySize=auto;html=1;exitX=1;exitY=0.5;exitDx=0;exitDy=0;entryX=0;entryY=0.75;entryDx=0;entryDy=0;" edge="1" parent="1" source="2_-vHu_s7roZ5x0PE6qe-16" target="2_-vHu_s7roZ5x0PE6qe-13">
          <mxGeometry relative="1" as="geometry" />
        </mxCell>
        <mxCell id="2_-vHu_s7roZ5x0PE6qe-20" style="edgeStyle=orthogonalEdgeStyle;rounded=0;orthogonalLoop=1;jettySize=auto;html=1;exitX=1;exitY=0.25;exitDx=0;exitDy=0;entryX=0;entryY=0.5;entryDx=0;entryDy=0;" edge="1" parent="1" source="2_-vHu_s7roZ5x0PE6qe-16" target="2_-vHu_s7roZ5x0PE6qe-7">
          <mxGeometry relative="1" as="geometry">
            <Array as="points">
              <mxPoint x="1300" y="170" />
              <mxPoint x="1345" y="170" />
              <mxPoint x="1345" y="185" />
            </Array>
          </mxGeometry>
        </mxCell>
        <mxCell id="2_-vHu_s7roZ5x0PE6qe-21" style="edgeStyle=orthogonalEdgeStyle;rounded=0;orthogonalLoop=1;jettySize=auto;html=1;exitX=1;exitY=0.5;exitDx=0;exitDy=0;entryX=0;entryY=0.5;entryDx=0;entryDy=0;" edge="1" parent="1" source="2_-vHu_s7roZ5x0PE6qe-16" target="2_-vHu_s7roZ5x0PE6qe-1">
          <mxGeometry relative="1" as="geometry" />
        </mxCell>
        <mxCell id="2_-vHu_s7roZ5x0PE6qe-16" value="Ingress nginx" style="rounded=0;whiteSpace=wrap;html=1;" vertex="1" parent="1">
          <mxGeometry x="1180" y="140" width="120" height="60" as="geometry" />
        </mxCell>
        <mxCell id="2_-vHu_s7roZ5x0PE6qe-49" style="edgeStyle=orthogonalEdgeStyle;rounded=0;orthogonalLoop=1;jettySize=auto;html=1;exitX=0.5;exitY=0;exitDx=0;exitDy=0;entryX=0.5;entryY=0;entryDx=0;entryDy=0;" edge="1" parent="1" source="2_-vHu_s7roZ5x0PE6qe-22" target="2_-vHu_s7roZ5x0PE6qe-46">
          <mxGeometry relative="1" as="geometry" />
        </mxCell>
        <mxCell id="2_-vHu_s7roZ5x0PE6qe-22" value="DATABASE for auth services" style="rounded=0;whiteSpace=wrap;html=1;" vertex="1" parent="1">
          <mxGeometry x="2010" y="40" width="120" height="60" as="geometry" />
        </mxCell>
        <mxCell id="2_-vHu_s7roZ5x0PE6qe-50" style="edgeStyle=orthogonalEdgeStyle;rounded=0;orthogonalLoop=1;jettySize=auto;html=1;exitX=0.5;exitY=0;exitDx=0;exitDy=0;entryX=0.443;entryY=-0.017;entryDx=0;entryDy=0;entryPerimeter=0;" edge="1" parent="1" source="2_-vHu_s7roZ5x0PE6qe-23" target="2_-vHu_s7roZ5x0PE6qe-47">
          <mxGeometry relative="1" as="geometry">
            <Array as="points">
              <mxPoint x="2070" y="140" />
              <mxPoint x="2193" y="140" />
            </Array>
          </mxGeometry>
        </mxCell>
        <mxCell id="2_-vHu_s7roZ5x0PE6qe-23" value="DATABASE&amp;nbsp;for list services" style="rounded=0;whiteSpace=wrap;html=1;" vertex="1" parent="1">
          <mxGeometry x="2010" y="150" width="120" height="60" as="geometry" />
        </mxCell>
        <mxCell id="2_-vHu_s7roZ5x0PE6qe-52" style="edgeStyle=orthogonalEdgeStyle;rounded=0;orthogonalLoop=1;jettySize=auto;html=1;exitX=0.5;exitY=0;exitDx=0;exitDy=0;entryX=0.5;entryY=0;entryDx=0;entryDy=0;" edge="1" parent="1" source="2_-vHu_s7roZ5x0PE6qe-24" target="2_-vHu_s7roZ5x0PE6qe-48">
          <mxGeometry relative="1" as="geometry">
            <Array as="points">
              <mxPoint x="2070" y="250" />
              <mxPoint x="2200" y="250" />
            </Array>
          </mxGeometry>
        </mxCell>
        <mxCell id="2_-vHu_s7roZ5x0PE6qe-24" value="&lt;span style=&quot;color: rgb(0 , 0 , 0) ; font-family: &amp;#34;helvetica&amp;#34; ; font-size: 12px ; font-style: normal ; font-weight: 400 ; letter-spacing: normal ; text-align: center ; text-indent: 0px ; text-transform: none ; word-spacing: 0px ; background-color: rgb(248 , 249 , 250) ; display: inline ; float: none&quot;&gt;&lt;span style=&quot;font-family: &amp;#34;helvetica&amp;#34;&quot;&gt;DATABASE&amp;nbsp;&lt;/span&gt;for other services&lt;/span&gt;" style="rounded=0;whiteSpace=wrap;html=1;" vertex="1" parent="1">
          <mxGeometry x="2010" y="260" width="120" height="60" as="geometry" />
        </mxCell>
        <mxCell id="2_-vHu_s7roZ5x0PE6qe-42" style="edgeStyle=orthogonalEdgeStyle;rounded=0;orthogonalLoop=1;jettySize=auto;html=1;exitX=1;exitY=0.5;exitDx=0;exitDy=0;" edge="1" parent="1" source="2_-vHu_s7roZ5x0PE6qe-32" target="2_-vHu_s7roZ5x0PE6qe-38">
          <mxGeometry relative="1" as="geometry" />
        </mxCell>
        <mxCell id="2_-vHu_s7roZ5x0PE6qe-32" value="&lt;font style=&quot;font-size: 18px&quot;&gt;EVENT BUS&lt;/font&gt;" style="rounded=0;whiteSpace=wrap;html=1;" vertex="1" parent="1">
          <mxGeometry x="2270" width="120" height="340" as="geometry" />
        </mxCell>
        <mxCell id="2_-vHu_s7roZ5x0PE6qe-38" value="&lt;font style=&quot;font-size: 18px&quot;&gt;EVENT BUS DATABASE&lt;/font&gt;" style="rounded=0;whiteSpace=wrap;html=1;" vertex="1" parent="1">
          <mxGeometry x="2430" width="120" height="340" as="geometry" />
        </mxCell>
        <mxCell id="2_-vHu_s7roZ5x0PE6qe-44" value="&lt;font style=&quot;font-size: 24px&quot;&gt;Kubernetes&lt;/font&gt;" style="text;html=1;strokeColor=none;fillColor=none;align=center;verticalAlign=middle;whiteSpace=wrap;rounded=0;" vertex="1" parent="1">
          <mxGeometry x="1150" y="-80" width="140" height="80" as="geometry" />
        </mxCell>
        <mxCell id="2_-vHu_s7roZ5x0PE6qe-46" value="TEMP Memory or Cached memory" style="rounded=0;whiteSpace=wrap;html=1;" vertex="1" parent="1">
          <mxGeometry x="2140" y="40" width="120" height="60" as="geometry" />
        </mxCell>
        <mxCell id="2_-vHu_s7roZ5x0PE6qe-47" value="TEMP Memory or Cached memory" style="rounded=0;whiteSpace=wrap;html=1;" vertex="1" parent="1">
          <mxGeometry x="2140" y="150" width="120" height="60" as="geometry" />
        </mxCell>
        <mxCell id="2_-vHu_s7roZ5x0PE6qe-48" value="TEMP Memory or Cached memory" style="rounded=0;whiteSpace=wrap;html=1;" vertex="1" parent="1">
          <mxGeometry x="2140" y="260" width="120" height="60" as="geometry" />
        </mxCell>
        <mxCell id="2_-vHu_s7roZ5x0PE6qe-54" value="Load Balancer" style="rounded=0;whiteSpace=wrap;html=1;" vertex="1" parent="1">
          <mxGeometry x="1730" y="-230" width="190" height="150" as="geometry" />
        </mxCell>
        <mxCell id="2_-vHu_s7roZ5x0PE6qe-59" style="edgeStyle=orthogonalEdgeStyle;rounded=0;orthogonalLoop=1;jettySize=auto;html=1;exitX=1;exitY=0.5;exitDx=0;exitDy=0;entryX=0.5;entryY=0;entryDx=0;entryDy=0;" edge="1" parent="1" source="2_-vHu_s7roZ5x0PE6qe-55" target="2_-vHu_s7roZ5x0PE6qe-54">
          <mxGeometry relative="1" as="geometry">
            <mxPoint x="1730" y="-150" as="targetPoint" />
            <Array as="points">
              <mxPoint x="1825" y="-364" />
            </Array>
          </mxGeometry>
        </mxCell>
        <mxCell id="2_-vHu_s7roZ5x0PE6qe-55" value="&lt;font style=&quot;font-size: 14px&quot;&gt;Admin Panel&lt;/font&gt;" style="rounded=0;whiteSpace=wrap;html=1;" vertex="1" parent="1">
          <mxGeometry x="1370" y="-397.5" width="210" height="67.5" as="geometry" />
        </mxCell>
        <mxCell id="2_-vHu_s7roZ5x0PE6qe-58" style="edgeStyle=orthogonalEdgeStyle;rounded=0;orthogonalLoop=1;jettySize=auto;html=1;exitX=1;exitY=0.5;exitDx=0;exitDy=0;" edge="1" parent="1" source="2_-vHu_s7roZ5x0PE6qe-56">
          <mxGeometry relative="1" as="geometry">
            <mxPoint x="1825" y="-230" as="targetPoint" />
            <Array as="points">
              <mxPoint x="1650" y="-476" />
              <mxPoint x="1650" y="-360" />
              <mxPoint x="1825" y="-360" />
            </Array>
          </mxGeometry>
        </mxCell>
        <mxCell id="2_-vHu_s7roZ5x0PE6qe-56" value="&lt;span style=&quot;font-size: 14px&quot;&gt;User mobile App&lt;/span&gt;" style="rounded=0;whiteSpace=wrap;html=1;" vertex="1" parent="1">
          <mxGeometry x="1370" y="-510" width="210" height="67.5" as="geometry" />
        </mxCell>
        <mxCell id="2_-vHu_s7roZ5x0PE6qe-60" style="edgeStyle=orthogonalEdgeStyle;rounded=0;orthogonalLoop=1;jettySize=auto;html=1;exitX=1;exitY=0.5;exitDx=0;exitDy=0;" edge="1" parent="1" source="2_-vHu_s7roZ5x0PE6qe-57" target="2_-vHu_s7roZ5x0PE6qe-54">
          <mxGeometry relative="1" as="geometry">
            <Array as="points">
              <mxPoint x="1655" y="-236" />
              <mxPoint x="1655" y="-360" />
              <mxPoint x="1825" y="-360" />
            </Array>
          </mxGeometry>
        </mxCell>
        <mxCell id="2_-vHu_s7roZ5x0PE6qe-57" value="&lt;font style=&quot;font-size: 14px&quot;&gt;Vendor Mobile App&lt;/font&gt;" style="rounded=0;whiteSpace=wrap;html=1;" vertex="1" parent="1">
          <mxGeometry x="1370" y="-270" width="210" height="67.5" as="geometry" />
        </mxCell>
      </root>
    </mxGraphModel>
  </diagram>
</mxfile>
